<?xml version="1.0" encoding="UTF-8"?>
<?xml-stylesheet href="https://cdnjs.cloudflare.com/ajax/libs/font-awesome/6.6.0/css/all.min.css" type="text/css"?>
<svg aria-roledescription="er" role="graphics-document document" viewBox="0 0 1048.1920166015625 1442" style="max-width: 100%;" xmlns="http://www.w3.org/2000/svg" width="100%" id="graph-div" height="100%" xmlns:xlink="http://www.w3.org/1999/xlink"><style>#graph-div{font-family:"trebuchet ms",verdana,arial,sans-serif;font-size:16px;fill:#ccc;}#graph-div .error-icon{fill:#a44141;}#graph-div .error-text{fill:#ddd;stroke:#ddd;}#graph-div .edge-thickness-normal{stroke-width:1px;}#graph-div .edge-thickness-thick{stroke-width:3.5px;}#graph-div .edge-pattern-solid{stroke-dasharray:0;}#graph-div .edge-thickness-invisible{stroke-width:0;fill:none;}#graph-div .edge-pattern-dashed{stroke-dasharray:3;}#graph-div .edge-pattern-dotted{stroke-dasharray:2;}#graph-div .marker{fill:lightgrey;stroke:lightgrey;}#graph-div .marker.cross{stroke:lightgrey;}#graph-div svg{font-family:"trebuchet ms",verdana,arial,sans-serif;font-size:16px;}#graph-div p{margin:0;}#graph-div .entityBox{fill:#1f2020;stroke:#ccc;}#graph-div .attributeBoxOdd{fill:hsl(0, 0%, 32%);stroke:#ccc;}#graph-div .attributeBoxEven{fill:hsl(0, 0%, 22%);stroke:#ccc;}#graph-div .relationshipLabelBox{fill:hsl(20, 1.5873015873%, 12.3529411765%);opacity:0.7;background-color:hsl(20, 1.5873015873%, 12.3529411765%);}#graph-div .relationshipLabelBox rect{opacity:0.5;}#graph-div .relationshipLine{stroke:lightgrey;}#graph-div .entityTitleText{text-anchor:middle;font-size:18px;fill:#ccc;}#graph-div #MD_PARENT_START{fill:#f5f5f5!important;stroke:lightgrey!important;stroke-width:1;}#graph-div #MD_PARENT_END{fill:#f5f5f5!important;stroke:lightgrey!important;stroke-width:1;}#graph-div :root{--mermaid-font-family:"trebuchet ms",verdana,arial,sans-serif;}</style><g></g><defs><marker orient="auto" markerHeight="240" markerWidth="190" refY="7" refX="0" id="MD_PARENT_START"><path d="M 18,7 L9,13 L1,7 L9,1 Z"></path></marker></defs><defs><marker orient="auto" markerHeight="28" markerWidth="20" refY="7" refX="19" id="MD_PARENT_END"><path d="M 18,7 L9,13 L1,7 L9,1 Z"></path></marker></defs><defs><marker orient="auto" markerHeight="18" markerWidth="18" refY="9" refX="0" id="ONLY_ONE_START"><path d="M9,0 L9,18 M15,0 L15,18" fill="none" stroke="gray"></path></marker></defs><defs><marker orient="auto" markerHeight="18" markerWidth="18" refY="9" refX="18" id="ONLY_ONE_END"><path d="M3,0 L3,18 M9,0 L9,18" fill="none" stroke="gray"></path></marker></defs><defs><marker orient="auto" markerHeight="18" markerWidth="30" refY="9" refX="0" id="ZERO_OR_ONE_START"><circle r="6" cy="9" cx="21" fill="white" stroke="gray"></circle><path d="M9,0 L9,18" fill="none" stroke="gray"></path></marker></defs><defs><marker orient="auto" markerHeight="18" markerWidth="30" refY="9" refX="30" id="ZERO_OR_ONE_END"><circle r="6" cy="9" cx="9" fill="white" stroke="gray"></circle><path d="M21,0 L21,18" fill="none" stroke="gray"></path></marker></defs><defs><marker orient="auto" markerHeight="36" markerWidth="45" refY="18" refX="18" id="ONE_OR_MORE_START"><path d="M0,18 Q 18,0 36,18 Q 18,36 0,18 M42,9 L42,27" fill="none" stroke="gray"></path></marker></defs><defs><marker orient="auto" markerHeight="36" markerWidth="45" refY="18" refX="27" id="ONE_OR_MORE_END"><path d="M3,9 L3,27 M9,18 Q27,0 45,18 Q27,36 9,18" fill="none" stroke="gray"></path></marker></defs><defs><marker orient="auto" markerHeight="36" markerWidth="57" refY="18" refX="18" id="ZERO_OR_MORE_START"><circle r="6" cy="18" cx="48" fill="white" stroke="gray"></circle><path d="M0,18 Q18,0 36,18 Q18,36 0,18" fill="none" stroke="gray"></path></marker></defs><defs><marker orient="auto" markerHeight="36" markerWidth="57" refY="18" refX="39" id="ZERO_OR_MORE_END"><circle r="6" cy="18" cx="9" fill="white" stroke="gray"></circle><path d="M21,18 Q39,0 57,18 Q39,36 21,18" fill="none" stroke="gray"></path></marker></defs><path style="stroke: gray; fill: none;" marker-start="url(#ONLY_ONE_START)" marker-end="url(#ZERO_OR_MORE_END)" d="M956.012,1256L956.012,1264.333C956.012,1272.667,956.012,1289.333,956.012,1306C956.012,1322.667,956.012,1339.333,956.012,1347.667L956.012,1356" class="er relationshipLine"></path><path style="stroke: gray; fill: none;" marker-start="url(#ONLY_ONE_START)" marker-end="url(#ZERO_OR_MORE_END)" d="M822.734,920.436L831.143,932.53C839.551,944.624,856.367,968.812,869.186,989.239C882.005,1009.667,890.826,1026.333,895.236,1034.667L899.646,1043" class="er relationshipLine"></path><path style="stroke: gray; fill: none;" marker-start="url(#ONLY_ONE_START)" marker-end="url(#ZERO_OR_MORE_END)" d="M722.048,943L719.553,951.333C717.058,959.667,712.068,976.333,709.573,1003.5C707.078,1030.667,707.078,1068.333,707.078,1087.167L707.078,1106" class="er relationshipLine"></path><path style="stroke: gray; fill: none;" marker-start="url(#ONLY_ONE_START)" marker-end="url(#ZERO_OR_MORE_END)" d="M615.18,503.908L680.318,529.757C745.457,555.606,875.734,607.303,940.873,660.985C1006.012,714.667,1006.012,770.333,1006.012,826C1006.012,881.667,1006.012,937.333,1003.349,973.5C1000.687,1009.667,995.362,1026.333,992.7,1034.667L990.037,1043" class="er relationshipLine"></path><path style="stroke: gray; fill: none;" marker-start="url(#ONLY_ONE_START)" marker-end="url(#ZERO_OR_MORE_END)" d="M615.18,566.994L628.427,582.328C641.674,597.663,668.169,628.331,684.531,651.999C700.893,675.667,707.122,692.333,710.236,700.667L713.351,709" class="er relationshipLine"></path><path style="stroke: gray; fill: none;" marker-start="url(#ONLY_ONE_START)" marker-end="url(#ZERO_OR_MORE_END)" d="M449.32,506.045L388.995,531.537C328.669,557.03,208.018,608.015,147.693,654.091C87.367,700.167,87.367,741.333,87.367,761.917L87.367,782.5" class="er relationshipLine"></path><path style="stroke: gray; fill: none;" marker-start="url(#ONLY_ONE_START)" marker-end="url(#ZERO_OR_MORE_END)" d="M449.32,542.405L426.751,561.837C404.182,581.27,359.044,620.135,336.475,660.151C313.906,700.167,313.906,741.333,313.906,761.917L313.906,782.5" class="er relationshipLine"></path><path style="stroke: gray; fill: none;" marker-start="url(#ONLY_ONE_START)" marker-end="url(#ZERO_OR_MORE_END)" d="M532.25,609L532.25,617.333C532.25,625.667,532.25,642.333,532.25,671.25C532.25,700.167,532.25,741.333,532.25,761.917L532.25,782.5" class="er relationshipLine"></path><path style="stroke: gray; fill: none;" marker-start="url(#ONLY_ONE_START)" marker-end="url(#ZERO_OR_MORE_END)" d="M719.218,177.558L744.879,195.132C770.54,212.705,821.862,247.853,847.523,296.76C873.184,345.667,873.184,408.333,873.184,471C873.184,533.667,873.184,596.333,864.776,639.761C856.367,683.188,839.551,707.376,831.143,719.47L822.734,731.564" class="er relationshipLine"></path><path style="stroke: gray; fill: none;" marker-start="url(#ONLY_ONE_START)" marker-end="url(#ZERO_OR_MORE_END)" d="M570.11,230.293L563.8,239.077C557.49,247.862,544.87,265.431,538.56,282.549C532.25,299.667,532.25,316.333,532.25,324.667L532.25,333" class="er relationshipLine"></path><g transform="translate(647.0468368530273,1106 )" id="entity-contactstatuses-561d0990-62a9-5eaf-9814-9de8eb44ef5f"><rect height="87" width="120.0625" y="0" x="0" class="er entityBox"></rect><text style="dominant-baseline: middle; text-anchor: middle; font-size: 12px;" transform="translate(60.03125,12)" y="0" x="0" id="text-entity-contactstatuses-561d0990-62a9-5eaf-9814-9de8eb44ef5f" class="er entityLabel">contact_statuses</text><rect height="21" width="59.921875" y="24" x="0" class="er attributeBoxOdd"></rect><text style="dominant-baseline: middle; font-size: 10.2px;" transform="translate(5,34.5)" y="0" x="0" id="text-entity-contactstatuses-561d0990-62a9-5eaf-9814-9de8eb44ef5f-attr-1-type" class="er entityLabel">VARCHAR</text><rect height="21" width="60.140625" y="24" x="59.921875" class="er attributeBoxOdd"></rect><text style="dominant-baseline: middle; font-size: 10.2px;" transform="translate(64.921875,34.5)" y="0" x="0" id="text-entity-contactstatuses-561d0990-62a9-5eaf-9814-9de8eb44ef5f-attr-1-name" class="er entityLabel">id</text><rect height="21" width="59.921875" y="45" x="0" class="er attributeBoxEven"></rect><text style="dominant-baseline: middle; font-size: 10.2px;" transform="translate(5,55.5)" y="0" x="0" id="text-entity-contactstatuses-561d0990-62a9-5eaf-9814-9de8eb44ef5f-attr-2-type" class="er entityLabel">VARCHAR</text><rect height="21" width="60.140625" y="45" x="59.921875" class="er attributeBoxEven"></rect><text style="dominant-baseline: middle; font-size: 10.2px;" transform="translate(64.921875,55.5)" y="0" x="0" id="text-entity-contactstatuses-561d0990-62a9-5eaf-9814-9de8eb44ef5f-attr-2-name" class="er entityLabel">name</text><rect height="21" width="59.921875" y="66" x="0" class="er attributeBoxOdd"></rect><text style="dominant-baseline: middle; font-size: 10.2px;" transform="translate(5,76.5)" y="0" x="0" id="text-entity-contactstatuses-561d0990-62a9-5eaf-9814-9de8eb44ef5f-attr-3-type" class="er entityLabel">VARCHAR</text><rect height="21" width="60.140625" y="66" x="59.921875" class="er attributeBoxOdd"></rect><text style="dominant-baseline: middle; font-size: 10.2px;" transform="translate(64.921875,76.5)" y="0" x="0" id="text-entity-contactstatuses-561d0990-62a9-5eaf-9814-9de8eb44ef5f-attr-3-name" class="er entityLabel">description</text></g><g transform="translate(20,782.5 )" id="entity-forecastcategories-23d8459e-8a34-583f-a304-322fa7b1b689"><rect height="87" width="134.734375" y="0" x="0" class="er entityBox"></rect><text style="dominant-baseline: middle; text-anchor: middle; font-size: 12px;" transform="translate(67.3671875,12)" y="0" x="0" id="text-entity-forecastcategories-23d8459e-8a34-583f-a304-322fa7b1b689" class="er entityLabel">forecast_categories</text><rect height="21" width="67.2578125" y="24" x="0" class="er attributeBoxOdd"></rect><text style="dominant-baseline: middle; font-size: 10.2px;" transform="translate(5,34.5)" y="0" x="0" id="text-entity-forecastcategories-23d8459e-8a34-583f-a304-322fa7b1b689-attr-1-type" class="er entityLabel">INTEGER</text><rect height="21" width="67.4765625" y="24" x="67.2578125" class="er attributeBoxOdd"></rect><text style="dominant-baseline: middle; font-size: 10.2px;" transform="translate(72.2578125,34.5)" y="0" x="0" id="text-entity-forecastcategories-23d8459e-8a34-583f-a304-322fa7b1b689-attr-1-name" class="er entityLabel">id</text><rect height="21" width="67.2578125" y="45" x="0" class="er attributeBoxEven"></rect><text style="dominant-baseline: middle; font-size: 10.2px;" transform="translate(5,55.5)" y="0" x="0" id="text-entity-forecastcategories-23d8459e-8a34-583f-a304-322fa7b1b689-attr-2-type" class="er entityLabel">VARCHAR</text><rect height="21" width="67.4765625" y="45" x="67.2578125" class="er attributeBoxEven"></rect><text style="dominant-baseline: middle; font-size: 10.2px;" transform="translate(72.2578125,55.5)" y="0" x="0" id="text-entity-forecastcategories-23d8459e-8a34-583f-a304-322fa7b1b689-attr-2-name" class="er entityLabel">name</text><rect height="21" width="67.2578125" y="66" x="0" class="er attributeBoxOdd"></rect><text style="dominant-baseline: middle; font-size: 10.2px;" transform="translate(5,76.5)" y="0" x="0" id="text-entity-forecastcategories-23d8459e-8a34-583f-a304-322fa7b1b689-attr-3-type" class="er entityLabel">VARCHAR</text><rect height="21" width="67.4765625" y="66" x="67.2578125" class="er attributeBoxOdd"></rect><text style="dominant-baseline: middle; font-size: 10.2px;" transform="translate(72.2578125,76.5)" y="0" x="0" id="text-entity-forecastcategories-23d8459e-8a34-583f-a304-322fa7b1b689-attr-3-name" class="er entityLabel">description</text></g><g transform="translate(906.0118637084961,1356 )" id="entity-industries-e892214c-66e2-5816-a919-d53ea6bebf24"><rect height="66" width="100" y="0" x="0" class="er entityBox"></rect><text style="dominant-baseline: middle; text-anchor: middle; font-size: 12px;" transform="translate(50,12)" y="0" x="0" id="text-entity-industries-e892214c-66e2-5816-a919-d53ea6bebf24" class="er entityLabel">industries</text><rect height="21" width="61.622314453125" y="24" x="0" class="er attributeBoxOdd"></rect><text style="dominant-baseline: middle; font-size: 10.2px;" transform="translate(5,34.5)" y="0" x="0" id="text-entity-industries-e892214c-66e2-5816-a919-d53ea6bebf24-attr-1-type" class="er entityLabel">INTEGER</text><rect height="21" width="38.377685546875" y="24" x="61.622314453125" class="er attributeBoxOdd"></rect><text style="dominant-baseline: middle; font-size: 10.2px;" transform="translate(66.622314453125,34.5)" y="0" x="0" id="text-entity-industries-e892214c-66e2-5816-a919-d53ea6bebf24-attr-1-name" class="er entityLabel">id</text><rect height="21" width="61.622314453125" y="45" x="0" class="er attributeBoxEven"></rect><text style="dominant-baseline: middle; font-size: 10.2px;" transform="translate(5,55.5)" y="0" x="0" id="text-entity-industries-e892214c-66e2-5816-a919-d53ea6bebf24-attr-2-type" class="er entityLabel">VARCHAR</text><rect height="21" width="38.377685546875" y="45" x="61.622314453125" class="er attributeBoxEven"></rect><text style="dominant-baseline: middle; font-size: 10.2px;" transform="translate(66.622314453125,55.5)" y="0" x="0" id="text-entity-industries-e892214c-66e2-5816-a919-d53ea6bebf24-attr-2-name" class="er entityLabel">name</text></g><g transform="translate(254.734375,782.5 )" id="entity-products-ce7ac559-5ef1-5445-aa6b-0190aa04e35c"><rect height="87" width="118.34375" y="0" x="0" class="er entityBox"></rect><text style="dominant-baseline: middle; text-anchor: middle; font-size: 12px;" transform="translate(59.171875,12)" y="0" x="0" id="text-entity-products-ce7ac559-5ef1-5445-aa6b-0190aa04e35c" class="er entityLabel">products</text><rect height="21" width="59.0625" y="24" x="0" class="er attributeBoxOdd"></rect><text style="dominant-baseline: middle; font-size: 10.2px;" transform="translate(5,34.5)" y="0" x="0" id="text-entity-products-ce7ac559-5ef1-5445-aa6b-0190aa04e35c-attr-1-type" class="er entityLabel">INTEGER</text><rect height="21" width="59.28125" y="24" x="59.0625" class="er attributeBoxOdd"></rect><text style="dominant-baseline: middle; font-size: 10.2px;" transform="translate(64.0625,34.5)" y="0" x="0" id="text-entity-products-ce7ac559-5ef1-5445-aa6b-0190aa04e35c-attr-1-name" class="er entityLabel">id</text><rect height="21" width="59.0625" y="45" x="0" class="er attributeBoxEven"></rect><text style="dominant-baseline: middle; font-size: 10.2px;" transform="translate(5,55.5)" y="0" x="0" id="text-entity-products-ce7ac559-5ef1-5445-aa6b-0190aa04e35c-attr-2-type" class="er entityLabel">VARCHAR</text><rect height="21" width="59.28125" y="45" x="59.0625" class="er attributeBoxEven"></rect><text style="dominant-baseline: middle; font-size: 10.2px;" transform="translate(64.0625,55.5)" y="0" x="0" id="text-entity-products-ce7ac559-5ef1-5445-aa6b-0190aa04e35c-attr-2-name" class="er entityLabel">name</text><rect height="21" width="59.0625" y="66" x="0" class="er attributeBoxOdd"></rect><text style="dominant-baseline: middle; font-size: 10.2px;" transform="translate(5,76.5)" y="0" x="0" id="text-entity-products-ce7ac559-5ef1-5445-aa6b-0190aa04e35c-attr-3-type" class="er entityLabel">VARCHAR</text><rect height="21" width="59.28125" y="66" x="59.0625" class="er attributeBoxOdd"></rect><text style="dominant-baseline: middle; font-size: 10.2px;" transform="translate(64.0625,76.5)" y="0" x="0" id="text-entity-products-ce7ac559-5ef1-5445-aa6b-0190aa04e35c-attr-3-name" class="er entityLabel">description</text></g><g transform="translate(473.078125,782.5 )" id="entity-stages-ecdd97e6-1a08-59a8-a40f-bafc53d7c44c"><rect height="87" width="118.34375" y="0" x="0" class="er entityBox"></rect><text style="dominant-baseline: middle; text-anchor: middle; font-size: 12px;" transform="translate(59.171875,12)" y="0" x="0" id="text-entity-stages-ecdd97e6-1a08-59a8-a40f-bafc53d7c44c" class="er entityLabel">stages</text><rect height="21" width="59.0625" y="24" x="0" class="er attributeBoxOdd"></rect><text style="dominant-baseline: middle; font-size: 10.2px;" transform="translate(5,34.5)" y="0" x="0" id="text-entity-stages-ecdd97e6-1a08-59a8-a40f-bafc53d7c44c-attr-1-type" class="er entityLabel">INTEGER</text><rect height="21" width="59.28125" y="24" x="59.0625" class="er attributeBoxOdd"></rect><text style="dominant-baseline: middle; font-size: 10.2px;" transform="translate(64.0625,34.5)" y="0" x="0" id="text-entity-stages-ecdd97e6-1a08-59a8-a40f-bafc53d7c44c-attr-1-name" class="er entityLabel">id</text><rect height="21" width="59.0625" y="45" x="0" class="er attributeBoxEven"></rect><text style="dominant-baseline: middle; font-size: 10.2px;" transform="translate(5,55.5)" y="0" x="0" id="text-entity-stages-ecdd97e6-1a08-59a8-a40f-bafc53d7c44c-attr-2-type" class="er entityLabel">VARCHAR</text><rect height="21" width="59.28125" y="45" x="59.0625" class="er attributeBoxEven"></rect><text style="dominant-baseline: middle; font-size: 10.2px;" transform="translate(64.0625,55.5)" y="0" x="0" id="text-entity-stages-ecdd97e6-1a08-59a8-a40f-bafc53d7c44c-attr-2-name" class="er entityLabel">name</text><rect height="21" width="59.0625" y="66" x="0" class="er attributeBoxOdd"></rect><text style="dominant-baseline: middle; font-size: 10.2px;" transform="translate(5,76.5)" y="0" x="0" id="text-entity-stages-ecdd97e6-1a08-59a8-a40f-bafc53d7c44c-attr-3-type" class="er entityLabel">VARCHAR</text><rect height="21" width="59.28125" y="66" x="59.0625" class="er attributeBoxOdd"></rect><text style="dominant-baseline: middle; font-size: 10.2px;" transform="translate(64.0625,76.5)" y="0" x="0" id="text-entity-stages-ecdd97e6-1a08-59a8-a40f-bafc53d7c44c-attr-3-name" class="er entityLabel">description</text></g><g transform="translate(883.8317718505859,1043 )" id="entity-companies-ca3bccc8-7338-5f82-9c8e-17af48bb5a80"><rect height="213" width="144.3601837158203" y="0" x="0" class="er entityBox"></rect><text style="dominant-baseline: middle; text-anchor: middle; font-size: 12px;" transform="translate(72.18009185791016,12)" y="0" x="0" id="text-entity-companies-ca3bccc8-7338-5f82-9c8e-17af48bb5a80" class="er entityLabel">companies</text><rect height="21" width="60.95256042480469" y="24" x="0" class="er attributeBoxOdd"></rect><text style="dominant-baseline: middle; font-size: 10.2px;" transform="translate(5,34.5)" y="0" x="0" id="text-entity-companies-ca3bccc8-7338-5f82-9c8e-17af48bb5a80-attr-1-type" class="er entityLabel">VARCHAR</text><rect height="21" width="83.40762329101562" y="24" x="60.95256042480469" class="er attributeBoxOdd"></rect><text style="dominant-baseline: middle; font-size: 10.2px;" transform="translate(65.95256042480469,34.5)" y="0" x="0" id="text-entity-companies-ca3bccc8-7338-5f82-9c8e-17af48bb5a80-attr-1-name" class="er entityLabel">id</text><rect height="21" width="60.95256042480469" y="45" x="0" class="er attributeBoxEven"></rect><text style="dominant-baseline: middle; font-size: 10.2px;" transform="translate(5,55.5)" y="0" x="0" id="text-entity-companies-ca3bccc8-7338-5f82-9c8e-17af48bb5a80-attr-2-type" class="er entityLabel">INTEGER</text><rect height="21" width="83.40762329101562" y="45" x="60.95256042480469" class="er attributeBoxEven"></rect><text style="dominant-baseline: middle; font-size: 10.2px;" transform="translate(65.95256042480469,55.5)" y="0" x="0" id="text-entity-companies-ca3bccc8-7338-5f82-9c8e-17af48bb5a80-attr-2-name" class="er entityLabel">industry_id</text><rect height="21" width="60.95256042480469" y="66" x="0" class="er attributeBoxOdd"></rect><text style="dominant-baseline: middle; font-size: 10.2px;" transform="translate(5,76.5)" y="0" x="0" id="text-entity-companies-ca3bccc8-7338-5f82-9c8e-17af48bb5a80-attr-3-type" class="er entityLabel">VARCHAR</text><rect height="21" width="83.40762329101562" y="66" x="60.95256042480469" class="er attributeBoxOdd"></rect><text style="dominant-baseline: middle; font-size: 10.2px;" transform="translate(65.95256042480469,76.5)" y="0" x="0" id="text-entity-companies-ca3bccc8-7338-5f82-9c8e-17af48bb5a80-attr-3-name" class="er entityLabel">name</text><rect height="21" width="60.95256042480469" y="87" x="0" class="er attributeBoxEven"></rect><text style="dominant-baseline: middle; font-size: 10.2px;" transform="translate(5,97.5)" y="0" x="0" id="text-entity-companies-ca3bccc8-7338-5f82-9c8e-17af48bb5a80-attr-4-type" class="er entityLabel">VARCHAR</text><rect height="21" width="83.40762329101562" y="87" x="60.95256042480469" class="er attributeBoxEven"></rect><text style="dominant-baseline: middle; font-size: 10.2px;" transform="translate(65.95256042480469,97.5)" y="0" x="0" id="text-entity-companies-ca3bccc8-7338-5f82-9c8e-17af48bb5a80-attr-4-name" class="er entityLabel">domain</text><rect height="21" width="60.95256042480469" y="108" x="0" class="er attributeBoxOdd"></rect><text style="dominant-baseline: middle; font-size: 10.2px;" transform="translate(5,118.5)" y="0" x="0" id="text-entity-companies-ca3bccc8-7338-5f82-9c8e-17af48bb5a80-attr-5-type" class="er entityLabel">VARCHAR</text><rect height="21" width="83.40762329101562" y="108" x="60.95256042480469" class="er attributeBoxOdd"></rect><text style="dominant-baseline: middle; font-size: 10.2px;" transform="translate(65.95256042480469,118.5)" y="0" x="0" id="text-entity-companies-ca3bccc8-7338-5f82-9c8e-17af48bb5a80-attr-5-name" class="er entityLabel">size</text><rect height="21" width="60.95256042480469" y="129" x="0" class="er attributeBoxEven"></rect><text style="dominant-baseline: middle; font-size: 10.2px;" transform="translate(5,139.5)" y="0" x="0" id="text-entity-companies-ca3bccc8-7338-5f82-9c8e-17af48bb5a80-attr-6-type" class="er entityLabel">VARCHAR</text><rect height="21" width="83.40762329101562" y="129" x="60.95256042480469" class="er attributeBoxEven"></rect><text style="dominant-baseline: middle; font-size: 10.2px;" transform="translate(65.95256042480469,139.5)" y="0" x="0" id="text-entity-companies-ca3bccc8-7338-5f82-9c8e-17af48bb5a80-attr-6-name" class="er entityLabel">country</text><rect height="21" width="60.95256042480469" y="150" x="0" class="er attributeBoxOdd"></rect><text style="dominant-baseline: middle; font-size: 10.2px;" transform="translate(5,160.5)" y="0" x="0" id="text-entity-companies-ca3bccc8-7338-5f82-9c8e-17af48bb5a80-attr-7-type" class="er entityLabel">DATETIME</text><rect height="21" width="83.40762329101562" y="150" x="60.95256042480469" class="er attributeBoxOdd"></rect><text style="dominant-baseline: middle; font-size: 10.2px;" transform="translate(65.95256042480469,160.5)" y="0" x="0" id="text-entity-companies-ca3bccc8-7338-5f82-9c8e-17af48bb5a80-attr-7-name" class="er entityLabel">created_date</text><rect height="21" width="60.95256042480469" y="171" x="0" class="er attributeBoxEven"></rect><text style="dominant-baseline: middle; font-size: 10.2px;" transform="translate(5,181.5)" y="0" x="0" id="text-entity-companies-ca3bccc8-7338-5f82-9c8e-17af48bb5a80-attr-8-type" class="er entityLabel">BOOLEAN</text><rect height="21" width="83.40762329101562" y="171" x="60.95256042480469" class="er attributeBoxEven"></rect><text style="dominant-baseline: middle; font-size: 10.2px;" transform="translate(65.95256042480469,181.5)" y="0" x="0" id="text-entity-companies-ca3bccc8-7338-5f82-9c8e-17af48bb5a80-attr-8-name" class="er entityLabel">is_customer</text><rect height="21" width="60.95256042480469" y="192" x="0" class="er attributeBoxOdd"></rect><text style="dominant-baseline: middle; font-size: 10.2px;" transform="translate(5,202.5)" y="0" x="0" id="text-entity-companies-ca3bccc8-7338-5f82-9c8e-17af48bb5a80-attr-9-type" class="er entityLabel">FLOAT</text><rect height="21" width="83.40762329101562" y="192" x="60.95256042480469" class="er attributeBoxOdd"></rect><text style="dominant-baseline: middle; font-size: 10.2px;" transform="translate(65.95256042480469,202.5)" y="0" x="0" id="text-entity-companies-ca3bccc8-7338-5f82-9c8e-17af48bb5a80-attr-9-name" class="er entityLabel">annual_revenue</text></g><g transform="translate(691.421875,709 )" id="entity-contacts-322165ee-fad1-5595-b988-8534c76b3001"><rect height="234" width="131.3124237060547" y="0" x="0" class="er entityBox"></rect><text style="dominant-baseline: middle; text-anchor: middle; font-size: 12px;" transform="translate(65.65621185302734,12)" y="0" x="0" id="text-entity-contacts-322165ee-fad1-5595-b988-8534c76b3001" class="er entityLabel">contacts</text><rect height="21" width="60.95256042480469" y="24" x="0" class="er attributeBoxOdd"></rect><text style="dominant-baseline: middle; font-size: 10.2px;" transform="translate(5,34.5)" y="0" x="0" id="text-entity-contacts-322165ee-fad1-5595-b988-8534c76b3001-attr-1-type" class="er entityLabel">VARCHAR</text><rect height="21" width="70.35986328125" y="24" x="60.95256042480469" class="er attributeBoxOdd"></rect><text style="dominant-baseline: middle; font-size: 10.2px;" transform="translate(65.95256042480469,34.5)" y="0" x="0" id="text-entity-contacts-322165ee-fad1-5595-b988-8534c76b3001-attr-1-name" class="er entityLabel">id</text><rect height="21" width="60.95256042480469" y="45" x="0" class="er attributeBoxEven"></rect><text style="dominant-baseline: middle; font-size: 10.2px;" transform="translate(5,55.5)" y="0" x="0" id="text-entity-contacts-322165ee-fad1-5595-b988-8534c76b3001-attr-2-type" class="er entityLabel">VARCHAR</text><rect height="21" width="70.35986328125" y="45" x="60.95256042480469" class="er attributeBoxEven"></rect><text style="dominant-baseline: middle; font-size: 10.2px;" transform="translate(65.95256042480469,55.5)" y="0" x="0" id="text-entity-contacts-322165ee-fad1-5595-b988-8534c76b3001-attr-2-name" class="er entityLabel">status_id</text><rect height="21" width="60.95256042480469" y="66" x="0" class="er attributeBoxOdd"></rect><text style="dominant-baseline: middle; font-size: 10.2px;" transform="translate(5,76.5)" y="0" x="0" id="text-entity-contacts-322165ee-fad1-5595-b988-8534c76b3001-attr-3-type" class="er entityLabel">VARCHAR</text><rect height="21" width="70.35986328125" y="66" x="60.95256042480469" class="er attributeBoxOdd"></rect><text style="dominant-baseline: middle; font-size: 10.2px;" transform="translate(65.95256042480469,76.5)" y="0" x="0" id="text-entity-contacts-322165ee-fad1-5595-b988-8534c76b3001-attr-3-name" class="er entityLabel">email</text><rect height="21" width="60.95256042480469" y="87" x="0" class="er attributeBoxEven"></rect><text style="dominant-baseline: middle; font-size: 10.2px;" transform="translate(5,97.5)" y="0" x="0" id="text-entity-contacts-322165ee-fad1-5595-b988-8534c76b3001-attr-4-type" class="er entityLabel">VARCHAR</text><rect height="21" width="70.35986328125" y="87" x="60.95256042480469" class="er attributeBoxEven"></rect><text style="dominant-baseline: middle; font-size: 10.2px;" transform="translate(65.95256042480469,97.5)" y="0" x="0" id="text-entity-contacts-322165ee-fad1-5595-b988-8534c76b3001-attr-4-name" class="er entityLabel">first_name</text><rect height="21" width="60.95256042480469" y="108" x="0" class="er attributeBoxOdd"></rect><text style="dominant-baseline: middle; font-size: 10.2px;" transform="translate(5,118.5)" y="0" x="0" id="text-entity-contacts-322165ee-fad1-5595-b988-8534c76b3001-attr-5-type" class="er entityLabel">VARCHAR</text><rect height="21" width="70.35986328125" y="108" x="60.95256042480469" class="er attributeBoxOdd"></rect><text style="dominant-baseline: middle; font-size: 10.2px;" transform="translate(65.95256042480469,118.5)" y="0" x="0" id="text-entity-contacts-322165ee-fad1-5595-b988-8534c76b3001-attr-5-name" class="er entityLabel">last_name</text><rect height="21" width="60.95256042480469" y="129" x="0" class="er attributeBoxEven"></rect><text style="dominant-baseline: middle; font-size: 10.2px;" transform="translate(5,139.5)" y="0" x="0" id="text-entity-contacts-322165ee-fad1-5595-b988-8534c76b3001-attr-6-type" class="er entityLabel">VARCHAR</text><rect height="21" width="70.35986328125" y="129" x="60.95256042480469" class="er attributeBoxEven"></rect><text style="dominant-baseline: middle; font-size: 10.2px;" transform="translate(65.95256042480469,139.5)" y="0" x="0" id="text-entity-contacts-322165ee-fad1-5595-b988-8534c76b3001-attr-6-name" class="er entityLabel">title</text><rect height="21" width="60.95256042480469" y="150" x="0" class="er attributeBoxOdd"></rect><text style="dominant-baseline: middle; font-size: 10.2px;" transform="translate(5,160.5)" y="0" x="0" id="text-entity-contacts-322165ee-fad1-5595-b988-8534c76b3001-attr-7-type" class="er entityLabel">VARCHAR</text><rect height="21" width="70.35986328125" y="150" x="60.95256042480469" class="er attributeBoxOdd"></rect><text style="dominant-baseline: middle; font-size: 10.2px;" transform="translate(65.95256042480469,160.5)" y="0" x="0" id="text-entity-contacts-322165ee-fad1-5595-b988-8534c76b3001-attr-7-name" class="er entityLabel">company_id</text><rect height="21" width="60.95256042480469" y="171" x="0" class="er attributeBoxEven"></rect><text style="dominant-baseline: middle; font-size: 10.2px;" transform="translate(5,181.5)" y="0" x="0" id="text-entity-contacts-322165ee-fad1-5595-b988-8534c76b3001-attr-8-type" class="er entityLabel">VARCHAR</text><rect height="21" width="70.35986328125" y="171" x="60.95256042480469" class="er attributeBoxEven"></rect><text style="dominant-baseline: middle; font-size: 10.2px;" transform="translate(65.95256042480469,181.5)" y="0" x="0" id="text-entity-contacts-322165ee-fad1-5595-b988-8534c76b3001-attr-8-name" class="er entityLabel">phone</text><rect height="21" width="60.95256042480469" y="192" x="0" class="er attributeBoxOdd"></rect><text style="dominant-baseline: middle; font-size: 10.2px;" transform="translate(5,202.5)" y="0" x="0" id="text-entity-contacts-322165ee-fad1-5595-b988-8534c76b3001-attr-9-type" class="er entityLabel">DATETIME</text><rect height="21" width="70.35986328125" y="192" x="60.95256042480469" class="er attributeBoxOdd"></rect><text style="dominant-baseline: middle; font-size: 10.2px;" transform="translate(65.95256042480469,202.5)" y="0" x="0" id="text-entity-contacts-322165ee-fad1-5595-b988-8534c76b3001-attr-9-name" class="er entityLabel">created_date</text><rect height="21" width="60.95256042480469" y="213" x="0" class="er attributeBoxEven"></rect><text style="dominant-baseline: middle; font-size: 10.2px;" transform="translate(5,223.5)" y="0" x="0" id="text-entity-contacts-322165ee-fad1-5595-b988-8534c76b3001-attr-10-type" class="er entityLabel">DATETIME</text><rect height="21" width="70.35986328125" y="213" x="60.95256042480469" class="er attributeBoxEven"></rect><text style="dominant-baseline: middle; font-size: 10.2px;" transform="translate(65.95256042480469,223.5)" y="0" x="0" id="text-entity-contacts-322165ee-fad1-5595-b988-8534c76b3001-attr-10-name" class="er entityLabel">last_modified</text></g><g transform="translate(449.32030487060547,333 )" id="entity-opportunities-3da4a83f-f31a-55f6-ad33-e5018994bf6f"><rect height="276" width="165.85939025878906" y="0" x="0" class="er entityBox"></rect><text style="dominant-baseline: middle; text-anchor: middle; font-size: 12px;" transform="translate(82.92969512939453,12)" y="0" x="0" id="text-entity-opportunities-3da4a83f-f31a-55f6-ad33-e5018994bf6f" class="er entityLabel">opportunities</text><rect height="21" width="60.95256042480469" y="24" x="0" class="er attributeBoxOdd"></rect><text style="dominant-baseline: middle; font-size: 10.2px;" transform="translate(5,34.5)" y="0" x="0" id="text-entity-opportunities-3da4a83f-f31a-55f6-ad33-e5018994bf6f-attr-1-type" class="er entityLabel">VARCHAR</text><rect height="21" width="104.90682983398438" y="24" x="60.95256042480469" class="er attributeBoxOdd"></rect><text style="dominant-baseline: middle; font-size: 10.2px;" transform="translate(65.95256042480469,34.5)" y="0" x="0" id="text-entity-opportunities-3da4a83f-f31a-55f6-ad33-e5018994bf6f-attr-1-name" class="er entityLabel">id</text><rect height="21" width="60.95256042480469" y="45" x="0" class="er attributeBoxEven"></rect><text style="dominant-baseline: middle; font-size: 10.2px;" transform="translate(5,55.5)" y="0" x="0" id="text-entity-opportunities-3da4a83f-f31a-55f6-ad33-e5018994bf6f-attr-2-type" class="er entityLabel">VARCHAR</text><rect height="21" width="104.90682983398438" y="45" x="60.95256042480469" class="er attributeBoxEven"></rect><text style="dominant-baseline: middle; font-size: 10.2px;" transform="translate(65.95256042480469,55.5)" y="0" x="0" id="text-entity-opportunities-3da4a83f-f31a-55f6-ad33-e5018994bf6f-attr-2-name" class="er entityLabel">name</text><rect height="21" width="60.95256042480469" y="66" x="0" class="er attributeBoxOdd"></rect><text style="dominant-baseline: middle; font-size: 10.2px;" transform="translate(5,76.5)" y="0" x="0" id="text-entity-opportunities-3da4a83f-f31a-55f6-ad33-e5018994bf6f-attr-3-type" class="er entityLabel">VARCHAR</text><rect height="21" width="104.90682983398438" y="66" x="60.95256042480469" class="er attributeBoxOdd"></rect><text style="dominant-baseline: middle; font-size: 10.2px;" transform="translate(65.95256042480469,76.5)" y="0" x="0" id="text-entity-opportunities-3da4a83f-f31a-55f6-ad33-e5018994bf6f-attr-3-name" class="er entityLabel">contact_id</text><rect height="21" width="60.95256042480469" y="87" x="0" class="er attributeBoxEven"></rect><text style="dominant-baseline: middle; font-size: 10.2px;" transform="translate(5,97.5)" y="0" x="0" id="text-entity-opportunities-3da4a83f-f31a-55f6-ad33-e5018994bf6f-attr-4-type" class="er entityLabel">VARCHAR</text><rect height="21" width="104.90682983398438" y="87" x="60.95256042480469" class="er attributeBoxEven"></rect><text style="dominant-baseline: middle; font-size: 10.2px;" transform="translate(65.95256042480469,97.5)" y="0" x="0" id="text-entity-opportunities-3da4a83f-f31a-55f6-ad33-e5018994bf6f-attr-4-name" class="er entityLabel">company_id</text><rect height="21" width="60.95256042480469" y="108" x="0" class="er attributeBoxOdd"></rect><text style="dominant-baseline: middle; font-size: 10.2px;" transform="translate(5,118.5)" y="0" x="0" id="text-entity-opportunities-3da4a83f-f31a-55f6-ad33-e5018994bf6f-attr-5-type" class="er entityLabel">INTEGER</text><rect height="21" width="104.90682983398438" y="108" x="60.95256042480469" class="er attributeBoxOdd"></rect><text style="dominant-baseline: middle; font-size: 10.2px;" transform="translate(65.95256042480469,118.5)" y="0" x="0" id="text-entity-opportunities-3da4a83f-f31a-55f6-ad33-e5018994bf6f-attr-5-name" class="er entityLabel">stage_id</text><rect height="21" width="60.95256042480469" y="129" x="0" class="er attributeBoxEven"></rect><text style="dominant-baseline: middle; font-size: 10.2px;" transform="translate(5,139.5)" y="0" x="0" id="text-entity-opportunities-3da4a83f-f31a-55f6-ad33-e5018994bf6f-attr-6-type" class="er entityLabel">INTEGER</text><rect height="21" width="104.90682983398438" y="129" x="60.95256042480469" class="er attributeBoxEven"></rect><text style="dominant-baseline: middle; font-size: 10.2px;" transform="translate(65.95256042480469,139.5)" y="0" x="0" id="text-entity-opportunities-3da4a83f-f31a-55f6-ad33-e5018994bf6f-attr-6-name" class="er entityLabel">forecast_category_id</text><rect height="21" width="60.95256042480469" y="150" x="0" class="er attributeBoxOdd"></rect><text style="dominant-baseline: middle; font-size: 10.2px;" transform="translate(5,160.5)" y="0" x="0" id="text-entity-opportunities-3da4a83f-f31a-55f6-ad33-e5018994bf6f-attr-7-type" class="er entityLabel">INTEGER</text><rect height="21" width="104.90682983398438" y="150" x="60.95256042480469" class="er attributeBoxOdd"></rect><text style="dominant-baseline: middle; font-size: 10.2px;" transform="translate(65.95256042480469,160.5)" y="0" x="0" id="text-entity-opportunities-3da4a83f-f31a-55f6-ad33-e5018994bf6f-attr-7-name" class="er entityLabel">product_id</text><rect height="21" width="60.95256042480469" y="171" x="0" class="er attributeBoxEven"></rect><text style="dominant-baseline: middle; font-size: 10.2px;" transform="translate(5,181.5)" y="0" x="0" id="text-entity-opportunities-3da4a83f-f31a-55f6-ad33-e5018994bf6f-attr-8-type" class="er entityLabel">FLOAT</text><rect height="21" width="104.90682983398438" y="171" x="60.95256042480469" class="er attributeBoxEven"></rect><text style="dominant-baseline: middle; font-size: 10.2px;" transform="translate(65.95256042480469,181.5)" y="0" x="0" id="text-entity-opportunities-3da4a83f-f31a-55f6-ad33-e5018994bf6f-attr-8-name" class="er entityLabel">amount</text><rect height="21" width="60.95256042480469" y="192" x="0" class="er attributeBoxOdd"></rect><text style="dominant-baseline: middle; font-size: 10.2px;" transform="translate(5,202.5)" y="0" x="0" id="text-entity-opportunities-3da4a83f-f31a-55f6-ad33-e5018994bf6f-attr-9-type" class="er entityLabel">INTEGER</text><rect height="21" width="104.90682983398438" y="192" x="60.95256042480469" class="er attributeBoxOdd"></rect><text style="dominant-baseline: middle; font-size: 10.2px;" transform="translate(65.95256042480469,202.5)" y="0" x="0" id="text-entity-opportunities-3da4a83f-f31a-55f6-ad33-e5018994bf6f-attr-9-name" class="er entityLabel">probability</text><rect height="21" width="60.95256042480469" y="213" x="0" class="er attributeBoxEven"></rect><text style="dominant-baseline: middle; font-size: 10.2px;" transform="translate(5,223.5)" y="0" x="0" id="text-entity-opportunities-3da4a83f-f31a-55f6-ad33-e5018994bf6f-attr-10-type" class="er entityLabel">DATETIME</text><rect height="21" width="104.90682983398438" y="213" x="60.95256042480469" class="er attributeBoxEven"></rect><text style="dominant-baseline: middle; font-size: 10.2px;" transform="translate(65.95256042480469,223.5)" y="0" x="0" id="text-entity-opportunities-3da4a83f-f31a-55f6-ad33-e5018994bf6f-attr-10-name" class="er entityLabel">created_date</text><rect height="21" width="60.95256042480469" y="234" x="0" class="er attributeBoxOdd"></rect><text style="dominant-baseline: middle; font-size: 10.2px;" transform="translate(5,244.5)" y="0" x="0" id="text-entity-opportunities-3da4a83f-f31a-55f6-ad33-e5018994bf6f-attr-11-type" class="er entityLabel">DATETIME</text><rect height="21" width="104.90682983398438" y="234" x="60.95256042480469" class="er attributeBoxOdd"></rect><text style="dominant-baseline: middle; font-size: 10.2px;" transform="translate(65.95256042480469,244.5)" y="0" x="0" id="text-entity-opportunities-3da4a83f-f31a-55f6-ad33-e5018994bf6f-attr-11-name" class="er entityLabel">close_date</text><rect height="21" width="60.95256042480469" y="255" x="0" class="er attributeBoxEven"></rect><text style="dominant-baseline: middle; font-size: 10.2px;" transform="translate(5,265.5)" y="0" x="0" id="text-entity-opportunities-3da4a83f-f31a-55f6-ad33-e5018994bf6f-attr-12-type" class="er entityLabel">BOOLEAN</text><rect height="21" width="104.90682983398438" y="255" x="60.95256042480469" class="er attributeBoxEven"></rect><text style="dominant-baseline: middle; font-size: 10.2px;" transform="translate(65.95256042480469,265.5)" y="0" x="0" id="text-entity-opportunities-3da4a83f-f31a-55f6-ad33-e5018994bf6f-attr-12-name" class="er entityLabel">is_closed</text></g><g transform="translate(570.1096382141113,20 )" id="entity-activities-52c6c7c7-33a3-5380-956b-851092f1c73a"><rect height="213" width="149.1088104248047" y="0" x="0" class="er entityBox"></rect><text style="dominant-baseline: middle; text-anchor: middle; font-size: 12px;" transform="translate(74.55440521240234,12)" y="0" x="0" id="text-entity-activities-52c6c7c7-33a3-5380-956b-851092f1c73a" class="er entityLabel">activities</text><rect height="21" width="60.95256042480469" y="24" x="0" class="er attributeBoxOdd"></rect><text style="dominant-baseline: middle; font-size: 10.2px;" transform="translate(5,34.5)" y="0" x="0" id="text-entity-activities-52c6c7c7-33a3-5380-956b-851092f1c73a-attr-1-type" class="er entityLabel">VARCHAR</text><rect height="21" width="88.15625" y="24" x="60.95256042480469" class="er attributeBoxOdd"></rect><text style="dominant-baseline: middle; font-size: 10.2px;" transform="translate(65.95256042480469,34.5)" y="0" x="0" id="text-entity-activities-52c6c7c7-33a3-5380-956b-851092f1c73a-attr-1-name" class="er entityLabel">id</text><rect height="21" width="60.95256042480469" y="45" x="0" class="er attributeBoxEven"></rect><text style="dominant-baseline: middle; font-size: 10.2px;" transform="translate(5,55.5)" y="0" x="0" id="text-entity-activities-52c6c7c7-33a3-5380-956b-851092f1c73a-attr-2-type" class="er entityLabel">VARCHAR</text><rect height="21" width="88.15625" y="45" x="60.95256042480469" class="er attributeBoxEven"></rect><text style="dominant-baseline: middle; font-size: 10.2px;" transform="translate(65.95256042480469,55.5)" y="0" x="0" id="text-entity-activities-52c6c7c7-33a3-5380-956b-851092f1c73a-attr-2-name" class="er entityLabel">contact_id</text><rect height="21" width="60.95256042480469" y="66" x="0" class="er attributeBoxOdd"></rect><text style="dominant-baseline: middle; font-size: 10.2px;" transform="translate(5,76.5)" y="0" x="0" id="text-entity-activities-52c6c7c7-33a3-5380-956b-851092f1c73a-attr-3-type" class="er entityLabel">VARCHAR</text><rect height="21" width="88.15625" y="66" x="60.95256042480469" class="er attributeBoxOdd"></rect><text style="dominant-baseline: middle; font-size: 10.2px;" transform="translate(65.95256042480469,76.5)" y="0" x="0" id="text-entity-activities-52c6c7c7-33a3-5380-956b-851092f1c73a-attr-3-name" class="er entityLabel">type</text><rect height="21" width="60.95256042480469" y="87" x="0" class="er attributeBoxEven"></rect><text style="dominant-baseline: middle; font-size: 10.2px;" transform="translate(5,97.5)" y="0" x="0" id="text-entity-activities-52c6c7c7-33a3-5380-956b-851092f1c73a-attr-4-type" class="er entityLabel">VARCHAR</text><rect height="21" width="88.15625" y="87" x="60.95256042480469" class="er attributeBoxEven"></rect><text style="dominant-baseline: middle; font-size: 10.2px;" transform="translate(65.95256042480469,97.5)" y="0" x="0" id="text-entity-activities-52c6c7c7-33a3-5380-956b-851092f1c73a-attr-4-name" class="er entityLabel">subject</text><rect height="21" width="60.95256042480469" y="108" x="0" class="er attributeBoxOdd"></rect><text style="dominant-baseline: middle; font-size: 10.2px;" transform="translate(5,118.5)" y="0" x="0" id="text-entity-activities-52c6c7c7-33a3-5380-956b-851092f1c73a-attr-5-type" class="er entityLabel">DATETIME</text><rect height="21" width="88.15625" y="108" x="60.95256042480469" class="er attributeBoxOdd"></rect><text style="dominant-baseline: middle; font-size: 10.2px;" transform="translate(65.95256042480469,118.5)" y="0" x="0" id="text-entity-activities-52c6c7c7-33a3-5380-956b-851092f1c73a-attr-5-name" class="er entityLabel">timestamp</text><rect height="21" width="60.95256042480469" y="129" x="0" class="er attributeBoxEven"></rect><text style="dominant-baseline: middle; font-size: 10.2px;" transform="translate(5,139.5)" y="0" x="0" id="text-entity-activities-52c6c7c7-33a3-5380-956b-851092f1c73a-attr-6-type" class="er entityLabel">INTEGER</text><rect height="21" width="88.15625" y="129" x="60.95256042480469" class="er attributeBoxEven"></rect><text style="dominant-baseline: middle; font-size: 10.2px;" transform="translate(65.95256042480469,139.5)" y="0" x="0" id="text-entity-activities-52c6c7c7-33a3-5380-956b-851092f1c73a-attr-6-name" class="er entityLabel">duration_minutes</text><rect height="21" width="60.95256042480469" y="150" x="0" class="er attributeBoxOdd"></rect><text style="dominant-baseline: middle; font-size: 10.2px;" transform="translate(5,160.5)" y="0" x="0" id="text-entity-activities-52c6c7c7-33a3-5380-956b-851092f1c73a-attr-7-type" class="er entityLabel">VARCHAR</text><rect height="21" width="88.15625" y="150" x="60.95256042480469" class="er attributeBoxOdd"></rect><text style="dominant-baseline: middle; font-size: 10.2px;" transform="translate(65.95256042480469,160.5)" y="0" x="0" id="text-entity-activities-52c6c7c7-33a3-5380-956b-851092f1c73a-attr-7-name" class="er entityLabel">outcome</text><rect height="21" width="60.95256042480469" y="171" x="0" class="er attributeBoxEven"></rect><text style="dominant-baseline: middle; font-size: 10.2px;" transform="translate(5,181.5)" y="0" x="0" id="text-entity-activities-52c6c7c7-33a3-5380-956b-851092f1c73a-attr-8-type" class="er entityLabel">VARCHAR</text><rect height="21" width="88.15625" y="171" x="60.95256042480469" class="er attributeBoxEven"></rect><text style="dominant-baseline: middle; font-size: 10.2px;" transform="translate(65.95256042480469,181.5)" y="0" x="0" id="text-entity-activities-52c6c7c7-33a3-5380-956b-851092f1c73a-attr-8-name" class="er entityLabel">opportunity_id</text><rect height="21" width="60.95256042480469" y="192" x="0" class="er attributeBoxOdd"></rect><text style="dominant-baseline: middle; font-size: 10.2px;" transform="translate(5,202.5)" y="0" x="0" id="text-entity-activities-52c6c7c7-33a3-5380-956b-851092f1c73a-attr-9-type" class="er entityLabel">VARCHAR</text><rect height="21" width="88.15625" y="192" x="60.95256042480469" class="er attributeBoxOdd"></rect><text style="dominant-baseline: middle; font-size: 10.2px;" transform="translate(65.95256042480469,202.5)" y="0" x="0" id="text-entity-activities-52c6c7c7-33a3-5380-956b-851092f1c73a-attr-9-name" class="er entityLabel">notes</text></g><rect height="14" width="58.03125" y="1299" x="926.9963989257812" class="er relationshipLabelBox"></rect><text style="text-anchor: middle; dominant-baseline: middle; font-size: 12px;" y="1306" x="956.0120239257812" id="rel1" class="er relationshipLabel">industry_id</text><rect height="14" width="64.71875" y="973.2965698242188" x="831.1206665039062" class="er relationshipLabelBox"></rect><text style="text-anchor: middle; dominant-baseline: middle; font-size: 12px;" y="980.2965698242188" x="863.4800415039062" id="rel2" class="er relationshipLabel">company_id</text><rect height="13.99993896484375" width="48.03125" y="1016.7798767089844" x="684.1920166015625" class="er relationshipLabelBox"></rect><text style="text-anchor: middle; dominant-baseline: middle; font-size: 12px;" y="1023.7798461914062" x="708.2076416015625" id="rel3" class="er relationshipLabel">status_id</text><rect height="14" width="64.71875" y="667.6826171875" x="923.7181396484375" class="er relationshipLabelBox"></rect><text style="text-anchor: middle; dominant-baseline: middle; font-size: 12px;" y="674.6826171875" x="956.0775146484375" id="rel4" class="er relationshipLabel">company_id</text><rect height="14" width="54.703125" y="626.6224365234375" x="643.6344604492188" class="er relationshipLabelBox"></rect><text style="text-anchor: middle; dominant-baseline: middle; font-size: 12px;" y="633.6224365234375" x="670.9860229492188" id="rel5" class="er relationshipLabel">contact_id</text><rect height="14" width="111.40625" y="598.4458618164062" x="171.878662109375" class="er relationshipLabelBox"></rect><text style="text-anchor: middle; dominant-baseline: middle; font-size: 12px;" y="605.4458618164062" x="227.581787109375" id="rel6" class="er relationshipLabel">forecast_category_id</text><rect height="14" width="56.046875" y="637.2125244140625" x="318.60211181640625" class="er relationshipLabelBox"></rect><text style="text-anchor: middle; dominant-baseline: middle; font-size: 12px;" y="644.2125244140625" x="346.62554931640625" id="rel7" class="er relationshipLabel">product_id</text><rect height="14" width="45.375" y="688.75" x="509.5625" class="er relationshipLabelBox"></rect><text style="text-anchor: middle; dominant-baseline: middle; font-size: 12px;" y="695.75" x="532.25" id="rel8" class="er relationshipLabel">stage_id</text><rect height="14" width="54.703125" y="422.13848876953125" x="845.5451049804688" class="er relationshipLabelBox"></rect><text style="text-anchor: middle; dominant-baseline: middle; font-size: 12px;" y="429.13848876953125" x="872.8966674804688" id="rel9" class="er relationshipLabel">contact_id</text><rect height="14" width="75.390625" y="270.87249755859375" x="502.734375" class="er relationshipLabelBox"></rect><text style="text-anchor: middle; dominant-baseline: middle; font-size: 12px;" y="277.87249755859375" x="540.4296875" id="rel10" class="er relationshipLabel">opportunity_id</text></svg>